<?xml version="1.0" encoding="utf-8"?>
<!-- Uploaded to: SVG Repo, www.svgrepo.com, Generator: SVG Repo Mixer Tools -->
<svg width="800px" height="800px" viewBox="0 0 1024 1024" class="icon"  version="1.1" xmlns="http://www.w3.org/2000/svg"><path d="M876.408 893.176c0 45.008-170.744 81.496-381.344 81.496-210.608 0-381.336-36.488-381.336-81.496 0-45.008 168.072-78.504 378.68-78.504 210.6 0 384 33.496 384 78.504z" fill="#B8CBCD" /><path d="M616.824 626.568c-71.36 0-136.52-25.864-183.488-72.832-53.464-53.456-78.896-128.176-71.624-210.392 7.128-80.616 45.04-159 106.76-220.712C537.08 54.016 627.336 14.672 716.104 14.672c71.36 0 136.52 25.864 183.48 72.824 53.464 53.456 78.896 128.176 71.624 210.392-7.128 80.616-45.048 159-106.76 220.72-68.6 68.608-158.864 107.96-247.624 107.96z m99.28-563.896c-76.128 0-154.016 34.224-213.696 93.904-53.76 53.76-86.744 121.592-92.88 191-6 67.824 14.512 128.984 57.752 172.224 37.896 37.896 91 58.768 149.544 58.768 76.128 0 154.016-34.224 213.688-93.896 53.76-53.76 86.744-121.6 92.88-191.008 6-67.816-14.504-128.984-57.752-172.224-37.888-37.904-91-58.768-149.536-58.768z" fill="#3C663E" /><path d="M121.968 932.992c-20.176 20.168-50.168 22.896-66.976 6.088-16.816-16.816-18.456-45.104 1.72-65.28l152.736-152.736c20.176-20.176 54.016-24.08 70.832-7.272 16.816 16.824 14.088 46.8-6.088 66.984l-152.224 152.216z" fill="#B2EDA6" /><path d="M82.928 974.104c-17.32 0-33.264-6.408-44.904-18.056-27.336-27.328-26.584-70.912 1.712-99.216L192.48 704.096c15.56-15.56 37.8-24.848 59.48-24.848 17.864 0 33.952 6.24 45.288 17.576 26.152 26.152 23.416 71.424-6.088 100.92l-152.216 152.216c-15.344 15.344-35.76 24.144-56.016 24.144z m169.032-246.864c-9.096 0-18.888 4.136-25.544 10.792L73.68 890.768c-10.848 10.856-9.072 23.984-1.72 31.344 3.304 3.296 7.784 3.992 10.968 3.992 7.504 0 15.76-3.768 22.072-10.08l152.216-152.216c10.416-10.424 13.264-25.864 6.088-33.04-2.232-2.24-6.368-3.528-11.344-3.528z" fill="#3C663E" /><path d="M222.008 734.32a23.984 23.984 0 0 1-16.968-40.968c145.64-145.64 175.496-227.08 169.896-240.264-5.144-12.096 0.296-26.336 12.336-31.616 12.032-5.28 25.976-0.144 31.392 11.832 32.136 71.024-114.96 229.256-179.688 293.984a23.904 23.904 0 0 1-16.968 7.032zM283.328 795.64a24.008 24.008 0 0 1-16.968-40.976c81.04-81.04 226.752-212.592 292.296-182.968a24 24 0 0 1 11.976 31.76 23.976 23.976 0 0 1-31.76 11.976c-15.288-6.072-93.784 28.384-238.576 173.176a23.928 23.928 0 0 1-16.968 7.032z" fill="#3C663E" /><path d="M680.408 802.672m-124 0a124 124 0 1 0 248 0 124 124 0 1 0-248 0Z" fill="#B2EDA6" /><path d="M680.408 950.672a147 147 0 0 1-104.648-43.352c-27.96-27.952-43.352-65.112-43.352-104.648s15.392-76.696 43.352-104.648a147.04 147.04 0 0 1 104.648-43.352c39.528 0 76.696 15.392 104.648 43.352 27.96 27.952 43.352 65.112 43.352 104.648s-15.392 76.696-43.352 104.656a147.032 147.032 0 0 1-104.648 43.344z m0-248c-26.712 0-51.824 10.4-70.712 29.288-18.888 18.888-29.288 44-29.288 70.712s10.4 51.824 29.288 70.704a99.352 99.352 0 0 0 70.712 29.296c26.712 0 51.816-10.4 70.712-29.288 18.888-18.888 29.288-44 29.288-70.712s-10.4-51.824-29.288-70.704a99.336 99.336 0 0 0-70.712-29.296z" fill="#3C663E" /><path d="M589.768 818.368c-12.696 0-25.488-2.144-37.792-6.568a16 16 0 0 1-10.576-14.448l-0.056-1.536a16 16 0 0 1 15.696-16.304c3.984-0.224 7.728 1.336 10.576 3.728 27.816 8.048 58.28 0.392 78.848-20.168 21.648-21.648 28.96-53.184 19.088-82.296a16 16 0 1 1 30.296-10.288c13.824 40.744 3.568 84.888-26.76 115.208-21.24 21.256-50.048 32.672-79.32 32.672zM689.672 940.12a16 16 0 0 1-15.432-11.808c-10.536-38.728 0.496-80.368 28.792-108.664 29.6-29.6 72.848-40.168 112.896-27.568a16 16 0 1 1-9.608 30.528 79.824 79.824 0 0 0-80.664 19.68 80.224 80.224 0 0 0-20.536 77.64 16 16 0 0 1-15.448 20.192zM458.352 544.728a16 16 0 0 1-11.312-27.312l418.608-418.608a16 16 0 1 1 22.624 22.624L469.664 540.04c-3.12 3.128-7.224 4.688-11.312 4.688zM407.44 471.192a16 16 0 0 1-11.312-27.312L780.792 59.208a16 16 0 1 1 22.624 22.624L418.752 466.504a15.92 15.92 0 0 1-11.312 4.688zM531.888 595.64a16 16 0 0 1-11.312-27.312l384.664-384.664a16 16 0 1 1 22.624 22.624L543.208 590.952a15.952 15.952 0 0 1-11.32 4.688zM379.152 375.024a16 16 0 0 1-11.312-27.312L684.624 30.928a16 16 0 1 1 22.624 22.624L390.464 370.336a15.92 15.92 0 0 1-11.312 4.688zM628.056 623.928a16 16 0 0 1-11.312-27.312l316.784-316.784a16 16 0 1 1 22.624 22.624L639.368 619.24c-3.128 3.12-7.216 4.688-11.312 4.688z" fill="#3C663E" /><path d="M843.016 510.792a15.936 15.936 0 0 1-11.312-4.688L480.976 155.376a16 16 0 1 1 22.624-22.624l350.728 350.728a16 16 0 0 1-11.312 27.312zM905.24 448.56a15.936 15.936 0 0 1-11.312-4.688L543.2 93.152a16 16 0 1 1 22.624-22.624l350.728 350.72a16 16 0 0 1-11.312 27.312zM780.792 573.016a15.936 15.936 0 0 1-11.312-4.688L418.752 217.6a16 16 0 1 1 22.624-22.624l350.728 350.728a16 16 0 0 1-11.312 27.312zM939.184 358.056a15.936 15.936 0 0 1-11.312-4.688l-294.16-294.16a16 16 0 1 1 22.624-22.624l294.16 294.16a16 16 0 0 1-11.312 27.312zM690.28 606.952a15.936 15.936 0 0 1-11.312-4.688l-294.16-294.16a16 16 0 1 1 22.624-22.624l294.16 294.16a16 16 0 0 1-11.312 27.312z" fill="#3C663E" /></svg>