<svg viewBox="0 0 370 94.5693581460441" preserveAspectRatio="xMidYMid meet" class="css-1tml6of" id="cgfehfaf" xmlns="http://www.w3.org/2000/svg"><defs id="SvgjsDefs1107"></defs><g id="SvgjsG1108" featurekey="odWo6G-0" transform="matrix(1.0507597790379206,0,0,1.0507597790379206,-17.538792622152442,-5.2528228667235854)" fill="#111"><metadata xmlns="http://www.w3.org/2000/svg"><sfw xmlns="http://ns.adobe.com/SaveForWeb/1.0/"><slices><slicesourcebounds height="1780.628" width="870" bottomleftorigin="true" x="-192" y="-1744.628"></slicesourcebounds></slices></sfw></metadata><g xmlns="http://www.w3.org/2000/svg"><path fill="#111" d="M81.392,86.424l-1.369-1.614l-1.218-2.594l-1.364-1.557l-1.21-2.576l-1.377-1.637l-1.219-2.591   l-1.479-1.637l-1.209-2.571l-1.364-1.557l-1.205-2.578l-0.814-0.964c-0.395-7.344-0.115-14.721,0.819-21.933l-0.005-0.367   c0.022-0.709,0.076-1.425,0.155-2.192l0.045-0.809c-0.182-6.609-2.024-12.811-5.479-18.447c-3.216-5.136-7.535-9.279-12.846-12.318   C44.879,5.408,39.05,4.358,32.866,5.375c-2.259,0.496-4.354,1.38-6.25,2.643c-5.789,3.946-9.09,9.515-9.816,16.568   c-0.589,7.734,1.223,15.045,5.382,21.718c3.464,5.637,8.248,10.042,14.232,13.092l0.341,0.117c1.577,0.782,3.296,1.438,5.041,1.927   c6.037,2.15,11.924,4.806,17.515,7.892l0.598,1.319l1.82,2.381l0.762,1.818l1.812,2.319l0.775,1.897l1.825,2.335l0.753,1.81   l1.936,2.405l0.758,1.803l1.812,2.318l0.779,1.898L75.668,95l7.642-4.655L81.392,86.424z M76.195,91.809l-1.062-1.278l-0.775-1.892   l-1.82-2.327L71.779,84.5l-1.936-2.403l-0.753-1.803l-1.816-2.321l-0.775-1.896l-1.82-2.335l-0.758-1.812l-1.842-2.421   l-0.873-1.927l-0.35-0.194c-5.812-3.236-11.946-6.014-18.316-8.276c-1.723-0.487-3.34-1.11-4.806-1.848l-0.328-0.11   c-5.52-2.844-9.939-6.924-13.143-12.137c-3.88-6.232-5.572-13.043-5.027-20.212c0.655-6.363,3.521-11.193,8.744-14.76   c1.63-1.08,3.45-1.847,5.347-2.27c5.55-0.91,10.834,0.044,15.711,2.832c4.952,2.835,8.987,6.702,11.978,11.484   c3.225,5.255,4.947,11.047,5.116,17.11l-0.04,0.647c-0.089,0.835-0.142,1.658-0.164,2.48l0.009,0.135   c-0.961,7.452-1.227,15.076-0.793,22.663l0.027,0.437l1.067,1.158l1.209,2.583l1.364,1.557l1.209,2.576l1.484,1.639l1.204,2.569   l1.383,1.634l1.213,2.592l1.364,1.555l1.21,2.58l1.386,1.639l0.864,1.768L76.195,91.809z"></path><path fill="#111" d="M64.396,53.313l0.301-4.163l-2.503,3.34c-1.373,1.84-3.043,3.419-4.907,4.659   c-1.635,0.957-3.415,1.688-5.28,2.173c-0.301,0.002-0.554,0.029-0.788,0.08l-3.916,0.861l3.729,1.475   c3.845,1.516,7.562,3.446,11.052,5.726l0.669,0.438l1.989-1.291l-0.089-0.753C64.183,61.692,64.099,57.471,64.396,53.313z    M55.199,60.861c1.161-0.449,2.29-0.996,3.385-1.639c1.151-0.764,2.219-1.628,3.207-2.578c-0.058,2.631,0.03,5.275,0.27,7.902   C59.846,63.181,57.556,61.946,55.199,60.861z"></path><path fill="#111" d="M62.53,47.834c1.125-2.4,1.338-6.02,1.352-6.208l0.009-0.795c0.004-0.615,0.009-1.328,0.062-1.847   l0.035-0.665c-0.15-5.445-1.688-10.582-4.566-15.274c-2.676-4.272-6.272-7.721-10.692-10.252   c-4.408-2.521-9.046-3.434-14.334-2.557c-1.79,0.396-3.469,1.11-5.001,2.127c-4.797,3.273-7.424,7.698-8.026,13.565   c-0.487,6.418,1.023,12.488,4.487,18.048c2.861,4.659,6.812,8.308,11.897,10.912l0.137,0.037c1.329,0.665,2.786,1.223,4.262,1.639   c1.82,0.639,3.646,0.962,5.422,0.962C56.059,57.526,61.344,50.348,62.53,47.834z M38.842,52.676l-0.124-0.031   c-4.527-2.332-8.155-5.679-10.781-9.957c-3.186-5.112-4.576-10.69-4.129-16.542c0.522-5.072,2.8-8.917,6.95-11.749   c1.271-0.842,2.671-1.44,4.102-1.759c1.09-0.18,2.184-0.271,3.251-0.271c3.282,0,6.445,0.859,9.399,2.547   c4.071,2.332,7.38,5.504,9.829,9.422c2.649,4.312,4.062,9.041,4.204,13.941l-0.027,0.501c-0.057,0.527-0.066,1.335-0.07,2.035   l-0.009,0.711c-0.005,0.033-0.199,3.303-1.125,5.269c-0.819,1.75-5.396,8.286-12.739,8.286c-1.502,0-3.052-0.277-4.683-0.849   C41.49,53.839,40.179,53.331,38.842,52.676z"></path><path fill="#111" d="M39.09,34.681c-0.005,0-0.005,0-0.005,0c-0.629,0-1.284-0.049-1.971-0.146   c-5.444-1.81-7.757-5.586-6.915-10.963c1.719-5.378,5.497-7.659,10.941-6.809c5.364,1.723,7.693,5.459,6.923,10.853   C46.496,32.315,43.408,34.681,39.09,34.681z"></path></g></g><g id="SvgjsG1109" featurekey="VGK2BT-0" transform="matrix(2.9118135330347377,0,0,2.9118135330347377,89.18469437674926,9.57737345091402)" fill="#111"><path d="M0.28 7.359999999999999 l0 -1.72 l11.66 0 l0 1.72 l-4.86 0 l0 12.64 l-1.94 0 l0 -12.64 l-4.86 0 z M20.64 16.72 l1.76 0 c-0.06 0.5 -0.54 1.98 -1.86 2.86 c-0.48 0.32 -1.16 0.72 -2.84 0.72 c-2.94 0 -4.68 -2.22 -4.68 -5.24 c0 -3.24 1.56 -5.82 5.02 -5.82 c3.02 0 4.5 2.4 4.5 6.1 l-7.64 0 c0 2.18 1.02 3.44 3.04 3.44 c1.66 0 2.64 -1.28 2.7 -2.06 z M14.9 13.940000000000001 l5.82 0 c-0.1 -1.62 -0.78 -3.12 -2.92 -3.12 c-1.62 0 -2.9 1.5 -2.9 3.12 z M33.160000000000004 12.879999999999999 l0 7.12 l-1.76 0 l0 -6.44 c0 -1.82 -0.52 -2.74 -2.24 -2.74 c-1 0 -2.76 0.64 -2.76 3.48 l0 5.7 l-1.76 0 l0 -10.46 l1.66 0 l0 1.48 l0.04 0 c0.38 -0.56 1.36 -1.78 3.16 -1.78 c1.62 0 3.66 0.66 3.66 3.64 z M44.28000000000001 12.879999999999999 l0 7.12 l-1.76 0 l0 -6.44 c0 -1.82 -0.52 -2.74 -2.24 -2.74 c-1 0 -2.76 0.64 -2.76 3.48 l0 5.7 l-1.76 0 l0 -10.46 l1.66 0 l0 1.48 l0.04 0 c0.38 -0.56 1.36 -1.78 3.16 -1.78 c1.62 0 3.66 0.66 3.66 3.64 z M48.680000000000014 9.54 l0 10.46 l-1.76 0 l0 -10.46 l1.76 0 z M48.680000000000014 7.640000000000001 l-1.76 0 l0 -2 l1.76 0 l0 2 z M58.96000000000001 12.52 l-1.7 0 c-0.02 -0.66 -0.26 -1.76 -2.48 -1.76 c-0.54 0 -2.08 0.18 -2.08 1.48 c0 0.86 0.54 1.06 1.9 1.4 l1.76 0.44 c2.18 0.54 2.94 1.34 2.94 2.76 c0 2.16 -1.78 3.46 -4.14 3.46 c-4.14 0 -4.44 -2.4 -4.5 -3.66 l1.7 0 c0.06 0.82 0.3 2.14 2.78 2.14 c1.26 0 2.4 -0.5 2.4 -1.66 c0 -0.84 -0.58 -1.12 -2.08 -1.5 l-2.04 -0.5 c-1.46 -0.36 -2.42 -1.1 -2.42 -2.54 c0 -2.3 1.9 -3.34 3.96 -3.34 c3.74 0 4 2.76 4 3.28 z M69.44000000000001 8.1 l-3.32 11.9 l-2.04 0 l-3.74 -14.36 l2.1 0 l2.68 11.68 l0.04 0 l3.22 -11.68 l2.12 0 l3.22 11.68 l0.04 0 l2.68 -11.68 l2.14 0 l-3.78 14.36 l-2.04 0 l-3.28 -11.9 l-0.04 0 z M82 9.54 l0 10.46 l-1.76 0 l0 -10.46 l1.76 0 z M82 7.640000000000001 l-1.76 0 l0 -2 l1.76 0 l0 2 z M89.12 13.440000000000001 l4.24 6.56 l-2.26 0 l-3.26 -5.28 l-1.46 1.32 l0 3.96 l-1.7 0 l0 -14.36 l1.7 0 l0 8.32 l4.5 -4.42 l2.24 0 z M96.44 9.54 l0 10.46 l-1.76 0 l0 -10.46 l1.76 0 z M96.44 7.640000000000001 l-1.76 0 l0 -2 l1.76 0 l0 2 z"></path></g></svg>