<svg width="370" height="95" viewBox="0 0 370 95" fill="none" xmlns="http://www.w3.org/2000/svg">
<g clip-path="url(#clip0_105_2)">
<path d="M67.9847 85.558L66.5462 83.8621L65.2663 81.1364L63.8331 79.5004L62.5617 76.7937L61.1148 75.0736L59.8339 72.351L58.2798 70.631L57.0095 67.9294L55.5762 66.2934L54.3101 63.5846L53.4547 62.5716C53.0397 54.8548 53.3339 47.1034 54.3153 39.5253L54.3101 39.1397C54.3332 38.3947 54.3899 37.6423 54.4729 36.8364L54.5202 35.9863C54.329 29.0419 52.3935 22.5251 48.7631 16.603C45.3839 11.2063 40.8456 6.85298 35.265 3.65972C29.6183 0.429687 23.4934 -0.673612 16.9955 0.395011C14.6218 0.916188 12.4205 1.84506 10.4282 3.17217C4.34538 7.31847 0.876825 13.1701 0.113973 20.5812C-0.504924 28.7077 1.39905 36.3898 5.76916 43.4016C9.40899 49.3247 14.4358 53.9533 20.7236 57.1581L21.0819 57.281C22.7389 58.1027 24.5452 58.792 26.3788 59.3059C32.7222 61.565 38.908 64.3558 44.7828 67.5985L45.4112 68.9844L47.3236 71.4863L48.1242 73.3965L50.0282 75.8333L50.8426 77.8266L52.7602 80.2801L53.5514 82.182L55.5857 84.709L56.3822 86.6035L58.2861 89.0392L59.1047 91.0336L61.9701 94.5694L70 89.6781L67.9847 85.558ZM62.5239 91.2164L61.4079 89.8735L60.5936 87.8855L58.6812 85.4404L57.8837 83.5364L55.8494 81.0114L55.0582 79.1169L53.15 76.6781L52.3357 74.6858L50.4233 72.2323L49.6268 70.3283L47.6913 67.7844L46.774 65.7596L46.4062 65.5558C40.2992 62.1555 33.8539 59.2365 27.1605 56.8597C25.3501 56.348 23.651 55.6933 22.1106 54.9179L21.7659 54.8023C15.9657 51.8139 11.3224 47.5268 7.9558 42.0492C3.87885 35.5009 2.10096 28.3442 2.67363 20.8113C3.36187 14.1253 6.37335 9.05012 11.8615 5.30206C13.5742 4.16724 15.4866 3.36131 17.4799 2.91683C23.3116 1.96064 28.8638 2.96307 33.9884 5.89259C39.1917 8.87149 43.4315 12.9348 46.5744 17.9595C49.9631 23.4813 51.7725 29.5673 51.9501 35.938L51.908 36.6179C51.8145 37.4952 51.7588 38.36 51.7357 39.2237L51.7452 39.3656C50.7354 47.1959 50.4559 55.2068 50.9119 63.179L50.9403 63.6381L52.0614 64.8549L53.3318 67.569L54.765 69.2051L56.0354 71.9118L57.5947 73.634L58.8599 76.3334L60.3131 78.0504L61.5876 80.7739L63.0209 82.4079L64.2923 85.1188L65.7486 86.841L66.6565 88.6988L62.5239 91.2164Z" fill="white"/>
<path d="M50.1259 50.7663L50.4422 46.392L47.8121 49.9015C46.3695 51.8349 44.6147 53.494 42.6561 54.797C40.9381 55.8026 39.0677 56.5707 37.1081 57.0803C36.7918 57.0824 36.5259 57.1108 36.2801 57.1644L32.1653 58.0691L36.0836 59.6189C40.1237 61.2119 44.0294 63.2398 47.6966 65.6356L48.3995 66.0958L50.4895 64.7393L50.396 63.9481C49.9021 59.5706 49.8138 55.1353 50.1259 50.7663ZM40.4621 58.6974C41.682 58.2256 42.8683 57.6509 44.0189 56.9752C45.2283 56.1724 46.3505 55.2646 47.3887 54.2664C47.3277 57.0309 47.4202 59.8091 47.6724 62.5695C45.345 61.1352 42.9387 59.8375 40.4621 58.6974Z" fill="white"/>
<path d="M48.1652 45.0092C49.3473 42.4874 49.5711 38.6836 49.5858 38.4861L49.5952 37.6507C49.5995 37.0045 49.6047 36.2553 49.6604 35.71L49.6972 35.0112C49.5396 29.2898 47.9235 23.8921 44.8994 18.9619C42.0876 14.4731 38.309 10.849 33.6647 8.18953C29.0329 5.54057 24.1595 4.58122 18.6031 5.50274C16.7222 5.91884 14.958 6.66908 13.3482 7.7377C8.30775 11.1768 5.5474 15.8265 4.91484 21.9913C4.40312 28.735 5.98977 35.1132 9.6296 40.9554C12.6358 45.8509 16.7874 49.6851 22.1305 52.4213L22.2744 52.4601C23.6709 53.1589 25.2019 53.7452 26.7528 54.1823C28.6652 54.8538 30.5839 55.1932 32.45 55.1932C41.3657 55.1932 46.919 47.6508 48.1652 45.0092ZM23.2748 50.097L23.1445 50.0644C18.3877 47.614 14.5755 44.0971 11.8162 39.602C8.46851 34.2305 7.00796 28.3694 7.47765 22.2203C8.02614 16.8909 10.4198 12.8507 14.7804 9.87495C16.1159 8.99021 17.587 8.36186 19.0906 8.02666C20.236 7.83753 21.3855 7.74191 22.5067 7.74191C25.9553 7.74191 29.2788 8.64451 32.3828 10.4182C36.6604 12.8686 40.1374 16.2016 42.7107 20.3185C45.4941 24.8493 46.9789 29.8184 47.1281 34.9671L47.0997 35.4935C47.0398 36.0473 47.0303 36.8963 47.0261 37.6318L47.0167 38.3789C47.0114 38.4136 46.8076 41.8496 45.8346 43.9154C44.974 45.7542 40.1647 52.622 32.449 52.622C30.8707 52.622 29.242 52.3309 27.5282 51.7299C26.0572 51.319 24.6796 50.7852 23.2748 50.097Z" fill="white"/>
<path d="M23.5354 31.1885C23.5302 31.1885 23.5302 31.1885 23.5302 31.1885C22.8693 31.1885 22.181 31.137 21.4591 31.0351C15.7388 29.1332 13.3084 25.1656 14.1931 19.5156C15.9994 13.8647 19.9692 11.4679 25.6895 12.361C31.3258 14.1715 33.773 18.0971 32.9639 23.7649C31.3174 28.7024 28.0726 31.1885 23.5354 31.1885Z" fill="white"/>
<path d="M90 31.0083V26H123.952V31.0083H109.8V67.8136H104.151V31.0083H90ZM149.285 58.2629H154.409C154.235 59.7188 152.837 64.0283 148.993 66.5907C147.596 67.5225 145.616 68.6872 140.724 68.6872C132.163 68.6872 127.097 62.223 127.097 53.4293C127.097 43.995 131.639 36.4825 141.714 36.4825C150.507 36.4825 154.817 43.4709 154.817 54.2446H132.571C132.571 60.5923 135.541 64.2612 141.423 64.2612C146.256 64.2612 149.11 60.5341 149.285 58.2629ZM132.571 50.1681H149.517C149.226 45.4509 147.246 41.0832 141.015 41.0832C136.298 41.0832 132.571 45.4509 132.571 50.1681ZM185.74 47.0815V67.8136H180.616V49.0616C180.616 43.7621 179.101 41.0832 174.093 41.0832C171.181 41.0832 166.057 42.9468 166.057 51.2163V67.8136H160.932V37.3561H165.765V41.6656H165.882C166.988 40.0349 169.842 36.4825 175.083 36.4825C179.8 36.4825 185.74 38.4043 185.74 47.0815ZM218.12 47.0815V67.8136H212.995V49.0616C212.995 43.7621 211.481 41.0832 206.473 41.0832C203.561 41.0832 198.436 42.9468 198.436 51.2163V67.8136H193.311V37.3561H198.145V41.6656H198.261C199.368 40.0349 202.221 36.4825 207.463 36.4825C212.18 36.4825 218.12 38.4043 218.12 47.0815ZM230.932 37.3561V67.8136H225.807V37.3561H230.932ZM230.932 31.8236H225.807V26H230.932V31.8236ZM260.865 46.0333H255.915C255.857 44.1115 255.158 40.9085 248.694 40.9085C247.121 40.9085 242.637 41.4326 242.637 45.218C242.637 47.7221 244.21 48.3045 248.17 49.2945L253.295 50.5757C259.642 52.1481 261.855 54.4775 261.855 58.6123C261.855 64.9018 256.672 68.6872 249.8 68.6872C237.745 68.6872 236.872 61.6988 236.697 58.03H241.647C241.822 60.4176 242.521 64.2612 249.742 64.2612C253.411 64.2612 256.73 62.8053 256.73 59.4276C256.73 56.9817 255.042 56.1664 250.674 55.0599L244.734 53.604C240.483 52.5557 237.687 50.401 237.687 46.208C237.687 39.5108 243.22 36.4825 249.218 36.4825C260.108 36.4825 260.865 44.5191 260.865 46.0333ZM291.381 33.1631L281.714 67.8136H275.774L264.884 26H270.998L278.802 60.01H278.918L288.294 26H294.468L303.844 60.01H303.96L311.764 26H317.995L306.988 67.8136H301.048L291.498 33.1631H291.381ZM327.953 37.3561V67.8136H322.829V37.3561H327.953ZM327.953 31.8236H322.829V26H327.953V31.8236ZM348.686 48.7121L361.032 67.8136H354.451L344.958 52.4393L340.707 56.2829V67.8136H335.757V26H340.707V50.2263L353.81 37.3561H360.333L348.686 48.7121ZM370 37.3561V67.8136H364.875V37.3561H370ZM370 31.8236H364.875V26H370V31.8236Z" fill="white"/>
</g>
<defs>
<clipPath id="clip0_105_2">
<rect width="370" height="94.5694" fill="white"/>
</clipPath>
</defs>
</svg>
